<svg width="20" height="20" viewBox="0 0 20 20" fill="none" xmlns="http://www.w3.org/2000/svg">
<path d="M8.94392 16.4926C9.19383 16.7307 9.5895 16.721 9.82758 16.4711C10.0657 16.2212 10.056 15.8256 9.80608 15.5875L4.59658 10.6253L16.875 10.6253C17.2202 10.6253 17.5 10.3455 17.5 10.0003C17.5 9.65517 17.2202 9.37533 16.875 9.37533L4.5965 9.37533L9.80608 4.41308C10.056 4.175 10.0657 3.77933 9.82758 3.52942C9.5895 3.2795 9.19383 3.26983 8.94392 3.50792L2.7615 9.39683C2.62075 9.53092 2.53742 9.702 2.51158 9.87975C2.504 9.91875 2.5 9.95908 2.5 10.0003C2.5 10.0416 2.504 10.082 2.51167 10.1211C2.5375 10.2987 2.62083 10.4697 2.7615 10.6037L8.94392 16.4926Z" fill="black"/>
</svg>
