<svg width="16" height="17" viewBox="0 0 16 17" fill="none" xmlns="http://www.w3.org/2000/svg">
<path d="M14.6667 3.83329H11.3334V1.83329C11.3334 1.65648 11.2631 1.48691 11.1381 1.36189C11.0131 1.23686 10.8435 1.16663 10.6667 1.16663H5.33335C5.15654 1.16663 4.98697 1.23686 4.86195 1.36189C4.73693 1.48691 4.66669 1.65648 4.66669 1.83329V3.83329H1.33335C1.15654 3.83329 0.986973 3.90353 0.861949 4.02855C0.736925 4.15358 0.666687 4.32315 0.666687 4.49996C0.666687 4.67677 0.736925 4.84634 0.861949 4.97136C0.986973 5.09639 1.15654 5.16663 1.33335 5.16663H2.07802L3.33869 15.2493C3.35883 15.4105 3.43715 15.5588 3.55893 15.6663C3.6807 15.7739 3.83756 15.8332 4.00002 15.8333H12C12.1625 15.8332 12.3193 15.7739 12.4411 15.6663C12.5629 15.5588 12.6412 15.4105 12.6614 15.2493L13.922 5.16663H14.6667C14.8435 5.16663 15.0131 5.09639 15.1381 4.97136C15.2631 4.84634 15.3334 4.67677 15.3334 4.49996C15.3334 4.32315 15.2631 4.15358 15.1381 4.02855C15.0131 3.90353 14.8435 3.83329 14.6667 3.83329ZM6.00002 2.49996H10V3.83329H6.00002V2.49996ZM11.4114 14.5H4.58869L3.42202 5.16663H12.578L11.4114 14.5Z" fill="white"/>
</svg>
