<svg width="20" height="20" viewBox="0 0 20 20" fill="none" xmlns="http://www.w3.org/2000/svg">
<path d="M10.4167 3.74992C9.26668 3.74992 8.33334 2.81659 8.33334 1.66659H7.50001C4.16668 1.66659 3.33334 2.49992 3.33334 5.83325L3.33334 14.1666C3.33334 17.4999 4.16668 18.3333 7.50001 18.3333H7.91668C7.91668 17.1833 8.85001 16.2499 10 16.2499C11.15 16.2499 12.0833 17.1833 12.0833 18.3333H12.5C15.8333 18.3333 16.6667 17.4999 16.6667 14.1666V5.83325C16.6667 2.49992 15.8333 1.66659 12.5 1.66659C12.5 2.81659 11.5667 3.74992 10.4167 3.74992Z" stroke="#292D32" stroke-linecap="round" stroke-linejoin="round"/>
<path d="M3.33334 11.6667H16.6667" stroke="#292D32" stroke-linecap="round" stroke-linejoin="round" stroke-dasharray="166.67 166.67"/>
</svg>
